# xmcd
#
# Track frame offsets:
#	150
#	15748
#	29793
#	44776
#	56534
#	69863
#	83329
#	94939
#	111319
#	128275
#	141973
#	157402
#	171511
#	195939
#	211150
#	226066
#	238590
#	255182
#	268760
#	303012
#	316862
#	337833
#
# Disc length: 4744 seconds
#
# Revision: 0
# Processed by: cddbd v1.5.2PL0 Copyright (c) Steve Scherf et al.
# Submitted via: EZCDAudioConverter 5.1.1.1
#
DISCID=24128616
DTITLE=Glen Campbell - Live Anthology 1972-2001
DYEAR=2012
DGENRE=Country
TTITLE0=Rhinestone Cowboy
TTITLE1=Galveston
TTITLE2=By The Time I Get To Phoenix
TTITLE3=Try A Little Kindness
TTITLE4=Wichita Lineman
TTITLE5=Gone, Gone, Gone
TTITLE6=Walkin' In The Sun
TTITLE7=On A Good Night
TTITLE8=True Grit
TTITLE9=The Hand That Rocks The Cradle
TTITLE10=I Remember You
TTITLE11=I'm A One Woman Man
TTITLE12=The Orange Blossom Special
TTITLE13=The Highway Man
TTITLE14=Streets Of London
TTITLE15=A Thing Called Love
TTITLE16=Southern Nights
TTITLE17=William Tell Overture
TTITLE18=Beach Boys Medley: Good Vibrations/California Girls/Fun Fun Fun/I Get
TTITLE18=Around/Surfin' USA
TTITLE19=Amazing Grace
TTITLE20=Mull Of Kintyre
TTITLE21=Gentle On My Mind
EXTD=
EXTT0=
EXTT1=
EXTT2=
EXTT3=
EXTT4=
EXTT5=
EXTT6=
EXTT7=
EXTT8=
EXTT9=
EXTT10=
EXTT11=
EXTT12=
EXTT13=
EXTT14=
EXTT15=
EXTT16=
EXTT17=
EXTT18=
EXTT19=
EXTT20=
EXTT21=
PLAYORDER=
